****************************************************************************

 Ong-Bak: The Thai Warrior (2003) Dual Audio Hindi Eng DvDRip

****************************************************************************

EXCLUSIVE DHAMAKA FROM Henry


Format : Matroska
File size : 393 MiB
Duration : 1h 43mn
Overall bit rate : 530 Kbps
Movie name : The Thai Warrior Ong Bak 2003 Dual Audio DvDRip - Henry 
Encoded date : UTC 2010-11-18 13:26:58
Writing application : mkvmerge v4.2.0 (\\\'No Talking\\\') built on Jul 28 2010 18:38:23
Writing library : libebml v1.0.0 + libmatroska v1.0.0 

Video
ID : 1
Format : AVC
Format/Info : Advanced Video Codec
Format profile : High@L3.0
Format settings, CABAC : Yes
Format settings, ReFrames : 4 frames
Format settings, GOP : N=1
Muxing mode : Container profile=Unknown@3.0
Codec ID : V_MPEG4/ISO/AVC
Duration : 1h 43mn
Bit rate : 401 Kbps
Width : 640 pixels
Height : 352 pixels
Display aspect ratio : 16:9
Frame rate : 23.976 fps
Color space : YUV
Chroma subsampling : 4:2:0
Bit depth : 8 bits
Scan type : Progressive
Bits/(Pixel*Frame) : 0.074
Stream size : 290 MiB (74%)
Title : Ripped By Henry Kharay
Writing library : x264 

Audio #1
ID : 2
Format : MPEG Audio
Format version : Version 1
Format profile : Layer 3
Codec ID : A_MPEG/L3
Codec ID/Hint : MP3
Duration : 1h 43mn
Bit rate mode : Constant
Bit rate : 64.0 Kbps
Channel(s) : 2 channels
Sampling rate : 48.0 KHz
Stream size : 47.4 MiB (12%)
Title : Henry
Writing library : LAME3.92

Audio #2
ID : 3
Format : MPEG Audio
Format version : Version 1
Format profile : Layer 3
Codec ID : A_MPEG/L3
Codec ID/Hint : MP3
Duration : 1h 43mn
Bit rate mode : Constant
Bit rate : 64.0 Kbps
Channel(s) : 2 channels
Sampling rate : 48.0 KHz
Stream size : 47.4 MiB (12%)
Title : Henry
Writing library : LAME3.92
Language : Hindi

Screens:
[img]http://img827.imageshack.us/img827/7996/ogtw21.gif[/img]
[img]http://img31.imageshack.us/img31/8926/vlcsnap2010030222h45m30.png[/img]
[img]http://img175.imageshack.us/img175/337/vlcsnap2010030222h35m47.png[/img]
[img]http://img205.imageshack.us/img205/9339/vlcsnap2010030222h35m26.png[/img]
[img]http://img715.imageshack.us/img715/811/vlcsnap2010030222h34m45.png[/img]
[img]http://img37.imageshack.us/img37/2574/vlcsnap2010030222h27m48.png[/img]
[img]http://img90.imageshack.us/img90/8472/vlcsnap2010030222h26m25.png[/img]
[img]http://img31.imageshack.us/img31/9003/vlcsnap2010030222h24m27.png[/img]
[img]http://img5.imageshack.us/img5/1015/52085166.png[/img]
[img]http://img214.imageshack.us/img214/69/33585706.png[/img]
[img]http://img214.imageshack.us/img214/6363/vlcsnap2010030222h25m50.png[/img]

